<svg width="99" height="14" viewBox="0 0 99 14" fill="none" xmlns="http://www.w3.org/2000/svg">
<g clip-path="url(#clip0)">
<path d="M22.7687 5.24094C22.7821 5.48866 22.7206 5.73467 22.5922 5.94695C22.4763 6.16342 22.306 6.34593 22.098 6.47646C22.3946 6.58909 22.6472 6.79389 22.8188 7.06076C22.9904 7.32763 23.0718 7.64249 23.0511 7.95908C23.0662 8.2267 23.0235 8.49443 22.9261 8.74413C22.8286 8.99384 22.6786 9.21969 22.4863 9.40639C22.2822 9.60514 22.0381 9.75826 21.7704 9.85563C21.5026 9.953 21.2172 9.99239 20.9331 9.9712H17.8267V3.22882H20.6507C20.9342 3.21405 21.2178 3.25644 21.4847 3.35347C21.7515 3.4505 21.9961 3.60018 22.2039 3.79363C22.4002 3.97739 22.5527 4.20277 22.6505 4.45322C22.7482 4.70367 22.7886 4.97283 22.7687 5.24094V5.24094ZM20.5448 4.46433H19.2387V6.01755H20.5448C20.7648 6.02762 20.98 5.95165 21.1449 5.80575C21.219 5.7401 21.2768 5.65803 21.3135 5.56609C21.3503 5.47416 21.3651 5.3749 21.3567 5.27624C21.363 5.17251 21.3473 5.06863 21.3108 4.97132C21.2744 4.87402 21.2178 4.78548 21.1449 4.71144C21.0702 4.62743 20.9773 4.56153 20.8733 4.51872C20.7694 4.47591 20.657 4.45731 20.5448 4.46433V4.46433ZM20.7566 7.18247H19.2387V8.70039H20.8272C20.9339 8.71211 21.0419 8.70254 21.1449 8.67225C21.2479 8.64195 21.3439 8.59152 21.4273 8.52388C21.5002 8.44984 21.5568 8.3613 21.5933 8.264C21.6297 8.16669 21.6454 8.06281 21.6391 7.95908C21.6589 7.83718 21.6427 7.71216 21.5925 7.59932C21.5424 7.48647 21.4604 7.39068 21.3567 7.32367C21.1778 7.21142 20.9668 7.16175 20.7566 7.18247V7.18247Z" fill="#23C1F2"/>
<path d="M28.4874 6.12342L24.6749 9.97116H24.2513V3.22878H25.6987V7.04123L29.4758 3.19348H29.9347V9.97116H28.4874V6.12342Z" fill="#23C1F2"/>
<path d="M32.6881 4.49958H30.8878V3.22876H35.8652V4.49958H34.0649V9.97114H32.6881V4.49958Z" fill="#23C1F2"/>
<path d="M40.9485 3.22876V4.49958H38.2657V5.87629H40.772V7.11181H38.2657V8.66503H41.0191V9.97114H36.8184V3.22876H40.9485Z" fill="#23C1F2"/>
<path d="M43.7372 4.49958V5.73509H45.1845C45.8239 5.68726 46.4568 5.88979 46.9496 6.2999C47.1557 6.49269 47.3165 6.72887 47.4203 6.99138C47.5241 7.25388 47.5683 7.53616 47.5497 7.81782C47.5635 8.09897 47.5171 8.37983 47.4136 8.6416C47.3101 8.90338 47.1519 9.14003 46.9496 9.33573C46.7142 9.55642 46.4363 9.72664 46.1327 9.83591C45.8292 9.94518 45.5065 9.9912 45.1845 9.97114H42.3252V3.22876H47.0202V4.49958H43.7372ZM45.1845 6.9353H43.7372V8.70033H45.1845C45.313 8.71102 45.4422 8.69454 45.5638 8.65196C45.6855 8.60939 45.7968 8.54167 45.8905 8.45322C45.9807 8.37372 46.0529 8.27594 46.1023 8.16639C46.1518 8.05684 46.1774 7.93801 46.1774 7.81782C46.1774 7.69762 46.1518 7.57879 46.1023 7.46924C46.0529 7.35969 45.9807 7.26191 45.8905 7.18241C45.7968 7.09396 45.6855 7.02624 45.5638 6.98367C45.4422 6.9411 45.313 6.92462 45.1845 6.9353V6.9353Z" fill="#23C1F2"/>
<path d="M48.2909 6.61763C48.2685 6.14525 48.3483 5.67358 48.525 5.23491C48.7016 4.79623 48.971 4.40091 49.3147 4.076C49.6401 3.77003 50.0229 3.53143 50.4409 3.37391C50.8589 3.2164 51.3039 3.14309 51.7504 3.15819C52.4615 3.14531 53.1568 3.36879 53.7272 3.79359C54.0243 3.99695 54.2774 4.25802 54.4715 4.56125C54.6655 4.86448 54.7966 5.20367 54.8568 5.55862H53.4448C53.3271 5.21189 53.0957 4.91511 52.7881 4.71647C52.4805 4.51782 52.1148 4.42895 51.7504 4.4643C51.4801 4.45376 51.2108 4.50195 50.9609 4.60555C50.711 4.70916 50.4866 4.8657 50.3031 5.06441C50.1096 5.27223 49.9599 5.51683 49.8629 5.78366C49.7659 6.05048 49.7235 6.33409 49.7383 6.61763C49.729 6.88991 49.7742 7.16129 49.8712 7.41587C49.9682 7.67046 50.115 7.90313 50.3031 8.10025C50.4747 8.30652 50.691 8.47095 50.9357 8.58106C51.1804 8.69116 51.4469 8.74403 51.7151 8.73566C52.1148 8.74434 52.5081 8.63373 52.8447 8.41795C53.0061 8.31465 53.1454 8.18032 53.2545 8.02277C53.3635 7.86522 53.4402 7.68757 53.4801 7.50014H54.8568C54.8151 7.87599 54.6964 8.23922 54.5081 8.56718C54.3199 8.89514 54.066 9.18081 53.7625 9.40636C53.2845 9.74005 52.7313 9.95016 52.1522 10.0179C51.5732 10.0857 50.9864 10.009 50.4443 9.79467C50.0432 9.65269 49.6721 9.43721 49.35 9.15926C49.0169 8.85323 48.7523 8.48032 48.5734 8.06495C48.385 7.60575 48.2891 7.11394 48.2909 6.61763V6.61763Z" fill="#23C1F2"/>
<path d="M57.4338 3.2288V6.01753C58.0339 6.01753 58.4222 5.98223 58.5634 5.87633C58.6566 5.8312 58.7393 5.76704 58.8061 5.688C58.873 5.60896 58.9226 5.51679 58.9517 5.41742C59.0781 5.09491 59.1842 4.76479 59.2694 4.42901C59.5518 3.37 60.2931 2.98169 61.5639 3.2288V4.21721C61.3349 4.19102 61.103 4.22763 60.8932 4.32311C60.7315 4.45946 60.6197 4.64575 60.5755 4.85262C60.4543 5.51612 60.1623 6.1366 59.7283 6.65294L61.7757 9.75938V9.97118H60.1519L58.4575 7.18244C58.1219 7.25836 57.7766 7.28217 57.4338 7.25305V9.97118H55.9865V3.2288H57.4338Z" fill="#23C1F2"/>
<path d="M65.8 4.1466C65.3755 4.15441 64.961 4.27634 64.5998 4.4996C64.2548 4.71145 63.993 5.0355 63.8585 5.41741H62.7642C62.8294 5.07373 62.9631 4.74666 63.1571 4.45559C63.3511 4.16453 63.6017 3.9154 63.8938 3.72299C64.4556 3.34223 65.1215 3.14491 65.8 3.15819C66.2465 3.14309 66.6915 3.2164 67.1095 3.37391C67.5275 3.53143 67.9103 3.77003 68.2358 4.076C68.5614 4.40522 68.8169 4.79707 68.9868 5.22787C69.1567 5.65866 69.2375 6.11944 69.2242 6.58233C69.2333 7.23938 69.0623 7.88639 68.73 8.45325C68.4269 8.96428 67.9867 9.38009 67.4592 9.65347C66.9327 9.91412 66.3522 10.0471 65.7647 10.0418C65.0607 10.0433 64.3723 9.83436 63.7879 9.44166C63.496 9.23641 63.2485 8.97424 63.0605 8.67093C62.8724 8.36761 62.7476 8.02941 62.6936 7.67664H63.7879C63.9079 8.08466 64.1711 8.43565 64.5292 8.66505C64.9055 8.91275 65.3499 9.03621 65.8 9.01806C66.0703 9.03606 66.3413 8.99835 66.5963 8.90727C66.8514 8.81618 67.085 8.67366 67.2827 8.48855C67.4944 8.31475 67.6691 8.10023 67.7964 7.85769C67.9238 7.61515 68.0011 7.34952 68.024 7.07654H65.3411V6.12342H68.024C68.0096 5.85219 67.9395 5.58682 67.818 5.34388C67.6966 5.10094 67.5263 4.88564 67.318 4.71141C67.1179 4.51724 66.8796 4.36676 66.6183 4.26954C66.357 4.17231 66.0784 4.13044 65.8 4.1466V4.1466Z" fill="#98CA3F"/>
<path d="M75.4371 9.97114H74.3074V6.97061H71.2363V9.97114H70.1067V3.22876H71.2363V5.94689H74.3074V3.22876H75.4371V9.97114Z" fill="#98CA3F"/>
<path d="M80.838 3.22876V4.21717H77.8728V5.98219H80.6615V6.97061H77.8728V8.94743H80.9086V9.97114H76.7432V3.22876H80.838Z" fill="#98CA3F"/>
<path d="M83.0619 9.9712H81.9323V3.22882H84.721C85.0427 3.2186 85.3629 3.27617 85.661 3.39781C85.959 3.51944 86.228 3.70241 86.4507 3.93483C86.8701 4.38428 87.098 4.97935 87.0861 5.59395C87.0978 5.89908 87.0476 6.20343 86.9383 6.48859C86.8291 6.77375 86.6632 7.03381 86.4507 7.25307C86.2267 7.48373 85.9574 7.66554 85.6597 7.78704C85.362 7.90855 85.0424 7.96712 84.721 7.95908H83.0619V9.9712ZM83.0266 6.97066H84.721C84.8922 6.97112 85.0618 6.93696 85.2195 6.87023C85.3773 6.8035 85.5199 6.70559 85.6388 6.58236C85.8791 6.31048 86.0055 5.95654 85.9918 5.59395C86.0045 5.41374 85.9797 5.23285 85.9189 5.06272C85.8582 4.89259 85.7628 4.73692 85.6388 4.60554C85.5275 4.47278 85.3862 4.36835 85.2267 4.30084C85.0671 4.23333 84.8938 4.20468 84.721 4.21723H83.0266V6.97066Z" fill="#98CA3F"/>
<path d="M91.8165 4.21717H88.9571V9.97114H87.8275V3.22876H91.8165V4.21717Z" fill="#98CA3F"/>
<path d="M98.7 6.5823C98.7187 7.04811 98.644 7.51294 98.4803 7.94944C98.3166 8.38593 98.0673 8.78527 97.7469 9.12393C97.4226 9.44395 97.0358 9.69373 96.6106 9.85771C96.1855 10.0217 95.7311 10.0964 95.2759 10.077C94.3699 10.0942 93.494 9.75143 92.8402 9.12393C92.5118 8.78936 92.2549 8.39154 92.0849 7.95462C91.915 7.51771 91.8357 7.05082 91.8518 6.5823C91.8366 6.11605 91.92 5.65185 92.0964 5.21998C92.2728 4.78812 92.5382 4.39831 92.8755 4.07597C93.1904 3.76306 93.5654 3.51727 93.978 3.35345C94.3906 3.18963 94.8321 3.11118 95.2759 3.12286C95.725 3.11046 96.1721 3.18843 96.5905 3.35216C97.0089 3.51589 97.3902 3.76203 97.7116 4.07597C98.0443 4.40005 98.3044 4.79103 98.4748 5.22307C98.6452 5.65512 98.7219 6.11839 98.7 6.5823V6.5823ZM93.6521 4.81728C93.4284 5.05203 93.2539 5.32907 93.1387 5.63216C93.0236 5.93524 92.9701 6.25827 92.9814 6.5823C92.9653 6.91218 93.0164 7.24189 93.1317 7.55138C93.247 7.86088 93.4241 8.14369 93.6521 8.38263C93.866 8.59247 94.1201 8.75692 94.3991 8.86611C94.6782 8.9753 94.9764 9.02698 95.2759 9.01803C95.581 9.02974 95.8854 8.97947 96.1705 8.87026C96.4557 8.76105 96.7158 8.59516 96.935 8.38263C97.1684 8.14748 97.3489 7.86526 97.4646 7.55482C97.5802 7.24437 97.6284 6.91282 97.6057 6.5823C97.6233 6.25759 97.5727 5.93279 97.4572 5.6288C97.3417 5.32482 97.1638 5.04838 96.935 4.81728C96.7211 4.60744 96.467 4.44298 96.188 4.33379C95.9089 4.2246 95.6107 4.17293 95.3112 4.18187C95.0061 4.17016 94.7017 4.22043 94.4166 4.32964C94.1314 4.43886 93.8713 4.60474 93.6521 4.81728Z" fill="#98CA3F"/>
<path d="M3.03584 6.12341L0 9.15925H3.74185V13.1835L6.77768 10.1477V6.12341H3.03584Z" fill="#7AA952"/>
<path d="M3.03584 0.0164795L0 3.05232H9.81352V13.1835L12.8847 10.1477V0.0164795H3.03584Z" fill="#3EB5F1"/>
<path d="M9.81348 3.05232L12.8846 0.0164795L9.81348 13.1835V3.05232Z" fill="#0772BA"/>
<path d="M0 3.05232H9.81352L12.8847 0.0164795L0 3.05232Z" fill="#1F95D3"/>
<path d="M12.8846 10.1477L9.81348 13.1835L12.8846 0.0164795V10.1477Z" fill="#1F95D3"/>
<path d="M3.74182 9.15925V13.1835L6.77766 6.12341L3.74182 9.15925Z" fill="#527F3F"/>
<path d="M0 9.15925H3.74185L6.77768 6.12341L0 9.15925Z" fill="#7AA952"/>
<path d="M0 9.15925L6.77768 6.12341H3.03584L0 9.15925Z" fill="#A1C758"/>
</g>
<defs>
<clipPath id="clip0">
<rect width="98.7" height="13.2" fill="white"/>
</clipPath>
</defs>
</svg>
